<svg xmlns="http://www.w3.org/2000/svg" style="display:node;">
    <!--  内容如下：
        <symbol id="icon-bmh" viewBox="0 0 1024 1024">
            <path d="M514.23232 362.3936H183.72608l68.66944 611.6352h519.20896l68.64896-611.6352H514.23232z" fill="#FF6F56"
                  p-id="7459"></path>
            <path d="M834.39616 237.48608a28.50816 28.50816 0 0 0-4.56704-1.536 33.11616 33.11616 0 0 0-25.47712-35.71712c0.02048-0.67584 0.22528-1.31072 0.22528-2.048 0-8.02816-3.11296-15.27808-8.02816-20.84864 0.6144-7.5776-1.24928-15.36-6.0416-21.97504a32.60416 32.60416 0 0 0-15.79008-11.83744 31.62112 31.62112 0 0 0-9.15456-9.13408l-2.19136-2.4576a33.3824 33.3824 0 0 0 0.04096-38.8096 33.15712 33.15712 0 0 0-55.07072 1.9456 28.34432 28.34432 0 0 0-14.17216 0.90112 33.01376 33.01376 0 0 0-30.96576-21.68832c-7.94624 0-15.1552 2.9696-20.91008 7.63904a32.1536 32.1536 0 0 0-4.34176-2.56 37.0688 37.0688 0 0 0-4.56704-1.49504 33.23904 33.23904 0 0 0-19.23072-33.62816 32.9728 32.9728 0 0 0-24.43264-1.024 31.5392 31.5392 0 0 0-32.256-20.86912 37.0688 37.0688 0 0 0-4.68992 0.88064 33.0752 33.0752 0 0 0-63.40608 15.872c0.4096 4.44416 1.67936 8.58112 3.54304 12.30848a27.99616 27.99616 0 0 0-6.9632 14.58176 33.03424 33.03424 0 0 0-18.30912-21.74976 33.09568 33.09568 0 0 0-35.59424 5.48864 32.80896 32.80896 0 0 0-21.83168 5.40672 26.39872 26.39872 0 0 0-12.9024 0.4096 33.05472 33.05472 0 0 0-63.36512 15.85152c0.28672 4.42368 1.59744 8.56064 3.46112 12.288a29.22496 29.22496 0 0 0-6.79936 13.74208 33.21856 33.21856 0 0 0-48.29184 37.70368 26.66496 26.66496 0 0 0-4.15744 3.74784 33.09568 33.09568 0 0 0-47.59552 21.62688 28.5696 28.5696 0 0 0-16.2816 48.68096 33.09568 33.09568 0 0 0-21.64736 44.38016 28.5696 28.5696 0 0 0 19.51744 49.4592c4.4032 0 8.54016-1.10592 12.20608-2.8672 2.56-0.90112 4.83328-2.2528 6.90176-3.87072 4.3008 2.64192 9.3184 4.25984 14.78656 4.25984 2.84672 0 5.57056-0.55296 8.17152-1.35168 5.12 7.76192 13.88544 12.9024 23.8592 12.9024 4.36224 0 8.47872-1.06496 12.24704-2.82624 6.28736-2.33472 11.3664-7.00416 13.94688-12.96384 4.8128 4.07552 11.10016 6.61504 18.00192 6.61504 2.33472 0 4.48512-0.36864 6.656-0.88064 4.3008-0.49152 8.3968-1.8432 12.00128-3.91168 4.54656 3.09248 10.0352 4.89472 15.93344 4.89472 0.32768 0 0.6144-0.08192 0.86016-0.08192 0.32768 0 0.57344 0.08192 0.83968 0.08192 4.44416 0 8.56064-1.10592 12.288-2.8672a24.7808 24.7808 0 0 0 6.8608-3.87072c4.3008 2.64192 9.3184 4.25984 14.76608 4.25984 2.8672 0 5.57056-0.55296 8.17152-1.35168 5.09952 7.7824 13.88544 12.9024 23.87968 12.9024 4.38272 0 8.47872-1.06496 12.20608-2.8672 6.32832-2.29376 11.40736-6.9632 13.98784-12.94336 4.8128 4.096 11.0592 6.63552 18.0224 6.63552 1.16736 0 2.29376-0.22528 3.3792-0.34816 5.16096 7.3728 13.66016 12.20608 23.3472 12.20608 4.36224 0 8.47872-1.08544 12.1856-2.82624 6.36928-2.33472 11.44832-7.00416 14.04928-12.98432 4.8128 4.07552 11.0592 6.63552 18.00192 6.63552 2.29376 0 4.52608-0.38912 6.656-0.90112 4.11648-0.43008 8.00768-1.72032 11.50976-3.64544 3.19488 1.26976 6.69696 2.06848 10.36288 2.06848 4.44416 0 8.54016-1.10592 12.288-2.88768 2.58048-0.94208 4.95616-2.3552 7.04512-4.03456 1.18784 0.49152 2.3552 1.08544 3.62496 1.4336 2.23232 0.67584 4.4032 0.94208 6.61504 1.04448 6.08256 1.04448 12.16512 0.28672 17.59232-2.048 4.1984 10.62912 14.45888 18.1248 26.5216 18.1248 4.36224 0 8.43776-1.08544 12.22656-2.8672 6.32832-2.29376 11.44832-6.9632 13.96736-12.92288 4.8128 4.05504 11.10016 6.61504 18.00192 6.61504 2.29376 0 4.52608-0.38912 6.656-0.88064a31.3344 31.3344 0 0 0 21.66784-12.43136c2.94912-1.4336 5.61152-3.4816 7.76192-6.0416a27.81184 27.81184 0 0 0 22.05696 12.45184 31.41632 31.41632 0 0 0 30.14656-11.55072 23.9616 23.9616 0 0 0 17.3056-6.16448c2.74432 5.69344 7.41376 10.58816 13.70112 13.43488 2.12992 0.96256 4.3008 1.536 6.43072 1.9456a31.45728 31.45728 0 0 0 38.31808-17.03936 31.62112 31.62112 0 0 0-15.7696-41.82016zM541.88032 81.55136c-0.04096 1.51552-0.06144 3.09248 0.04096 4.608-0.63488-0.77824-1.16736-1.57696-1.8432-2.2528 0.43008-0.90112 0.88064-1.78176 1.18784-2.7648l0.6144 0.4096z"
                  fill="#FFDE5D" p-id="7460"></path>
            <path d="M479.37536 998.33856l-12.53376-647.31136h-58.96192l12.55424 647.31136h58.94144zM320.06144 998.33856h28.03712L324.77184 351.0272h-58.92096l23.16288 643.31776c8.21248 2.56 18.35008 3.9936 31.04768 3.9936zM544.58368 998.33856l12.57472-647.31136h58.94144l-12.53376 647.31136h-58.9824zM703.97952 998.33856h-28.03712l23.30624-647.31136h58.92096l-23.16288 643.31776c-8.25344 2.56-18.41152 3.9936-31.0272 3.9936z"
                  fill="#FAF6E6" p-id="7461"></path>
            <path d="M835.91168 406.24128l4.34176-43.84768H183.72608l4.36224 43.84768z" fill="#231815" opacity=".2"
                  p-id="7462"></path>
            <path d="M897.92512 322.9696a43.66336 43.66336 0 0 1-43.66336 43.66336H169.73824a43.64288 43.64288 0 0 1-43.66336-43.66336 43.6224 43.6224 0 0 1 43.66336-43.66336h684.52352c24.12544 0 43.66336 19.53792 43.66336 43.66336zM799.49824 997.45792c0 12.96384-10.4448 23.47008-23.38816 23.47008H247.88992a23.42912 23.42912 0 1 1 0-46.8992h528.24064a23.40864 23.40864 0 0 1 23.36768 23.42912z"
                  fill="#FF6F56" p-id="7463"></path>
        </symbol>

        使用如下：
        <svg class="icon">
            <use xlink:href="svg/svg-symbols.svg#bmh"></use>
        </svg>
    -->

    <svg id="icon-system" viewBox="0 0 1024 1024">
        <path d="M490.36 491.69H262.07c-90.24 0-163.66-73.42-163.66-163.66V99.75H326.7c90.24 0 163.66 73.42 163.66 163.66v228.28zM152.97 154.3v173.74c0 60.16 48.94 109.1 109.1 109.1h173.74V263.4c0-60.16-48.94-109.1-109.1-109.1H152.97zM761.93 491.69H533.64V263.4c0-90.24 73.42-163.66 163.66-163.66h228.29v228.29c0 90.25-73.42 163.66-163.66 163.66z m-173.74-54.55h173.74c60.16 0 109.1-48.94 109.1-109.1V154.3H697.3c-60.16 0-109.1 48.94-109.1 109.1v173.74zM326.7 924.25H98.41V695.97c0-90.24 73.42-163.66 163.66-163.66h228.29V760.6c0 90.23-73.42 163.65-163.66 163.65zM152.97 869.7H326.7c60.16 0 109.1-48.94 109.1-109.1V586.87H262.07c-60.16 0-109.1 48.94-109.1 109.1V869.7zM925.59 924.25H697.3c-90.24 0-163.66-73.42-163.66-163.66V532.31h228.29c90.24 0 163.66 73.42 163.66 163.66v228.28z m-337.4-337.38V760.6c0 60.16 48.94 109.1 109.1 109.1h173.74V695.97c0-60.16-48.94-109.1-109.1-109.1H588.19z"
              p-id="1809"></path>
    </svg>

    <symbol id="icon-github" viewBox="0 0 1024 1024">
        <path d="M524.979332 0C234.676191 0 0 234.676191 0 524.979332c0 232.068678 150.366597 428.501342 358.967656 498.035028 26.075132 5.215026 35.636014-11.299224 35.636014-25.205961 0-12.168395-0.869171-53.888607-0.869171-97.347161-146.020741 31.290159-176.441729-62.580318-176.441729-62.580318-23.467619-60.841976-58.234462-76.487055-58.234463-76.487055-47.804409-32.15933 3.476684-32.15933 3.476685-32.15933 53.019436 3.476684 80.83291 53.888607 80.83291 53.888607 46.935238 79.963739 122.553122 57.365291 152.97411 43.458554 4.345855-33.897672 18.252593-57.365291 33.028501-70.402857-116.468925-12.168395-239.022047-57.365291-239.022047-259.012982 0-57.365291 20.860106-104.300529 53.888607-140.805715-5.215026-13.037566-23.467619-66.926173 5.215027-139.067372 0 0 44.327725-13.906737 144.282399 53.888607 41.720212-11.299224 86.917108-17.383422 131.244833-17.383422s89.524621 6.084198 131.244833 17.383422C756.178839 203.386032 800.506564 217.29277 800.506564 217.29277c28.682646 72.1412 10.430053 126.029806 5.215026 139.067372 33.897672 36.505185 53.888607 83.440424 53.888607 140.805715 0 201.64769-122.553122 245.975415-239.891218 259.012982 19.121764 16.514251 35.636014 47.804409 35.636015 97.347161 0 70.402857-0.869171 126.898978-0.869172 144.282399 0 13.906737 9.560882 30.420988 35.636015 25.205961 208.601059-69.533686 358.967656-265.96635 358.967655-498.035028C1049.958663 234.676191 814.413301 0 524.979332 0z"
              fill="#191717" p-id="2171"></path>
        <path d="M199.040177 753.571326c-0.869171 2.607513-5.215026 3.476684-8.691711 1.738342s-6.084198-5.215026-4.345855-7.82254c0.869171-2.607513 5.215026-3.476684 8.691711-1.738342s5.215026 5.215026 4.345855 7.82254z m-6.953369-4.345856M219.900283 777.038945c-2.607513 2.607513-7.82254 0.869171-10.430053-2.607514-3.476684-3.476684-4.345855-8.691711-1.738342-11.299224 2.607513-2.607513 6.953369-0.869171 10.430053 2.607514 3.476684 4.345855 4.345855 9.560882 1.738342 11.299224z m-5.215026-5.215027M240.760389 807.459932c-3.476684 2.607513-8.691711 0-11.299224-4.345855-3.476684-4.345855-3.476684-10.430053 0-12.168395 3.476684-2.607513 8.691711 0 11.299224 4.345855 3.476684 4.345855 3.476684 9.560882 0 12.168395z m0 0M269.443034 837.011749c-2.607513 3.476684-8.691711 2.607513-13.906737-1.738342-4.345855-4.345855-6.084198-10.430053-2.607513-13.037566 2.607513-3.476684 8.691711-2.607513 13.906737 1.738342 4.345855 3.476684 5.215026 9.560882 2.607513 13.037566z m0 0M308.555733 853.526c-0.869171 4.345855-6.953369 6.084198-13.037566 4.345855-6.084198-1.738342-9.560882-6.953369-8.691711-10.430053 0.869171-4.345855 6.953369-6.084198 13.037566-4.345855 6.084198 1.738342 9.560882 6.084198 8.691711 10.430053z m0 0M351.145116 857.002684c0 4.345855-5.215026 7.82254-11.299224 7.82254-6.084198 0-11.299224-3.476684-11.299224-7.82254s5.215026-7.82254 11.299224-7.82254c6.084198 0 11.299224 3.476684 11.299224 7.82254z m0 0M391.126986 850.049315c0.869171 4.345855-3.476684 8.691711-9.560882 9.560882-6.084198 0.869171-11.299224-1.738342-12.168395-6.084197-0.869171-4.345855 3.476684-8.691711 9.560881-9.560882 6.084198-0.869171 11.299224 1.738342 12.168396 6.084197z m0 0"
              fill="#191717" p-id="2172"></path>
    </symbol>

</svg>
